<svg version="1.0" preserveAspectRatio="xMidYMid meet" viewBox="2.3812425000000004 135.890996738616 86.25 83.24999800200001" zoomAndPan="magnify" xmlns:xlink="http://www.w3.org/1999/xlink" xmlns="http://www.w3.org/2000/svg" style="max-height: 500px" width="86.25" height="83.24999800200001"><defs><g/><clipPath id="ae065a6aea"><path clip-rule="nonzero" d="M 4.351562 136.21875 L 85.914062 136.21875 L 85.914062 217.78125 L 4.351562 217.78125 Z M 4.351562 136.21875"/></clipPath><clipPath id="3eeb63d834"><path clip-rule="nonzero" d="M 45.132812 136.21875 C 22.609375 136.21875 4.351562 154.476562 4.351562 177 C 4.351562 199.523438 22.609375 217.78125 45.132812 217.78125 C 67.65625 217.78125 85.914062 199.523438 85.914062 177 C 85.914062 154.476562 67.65625 136.21875 45.132812 136.21875 Z M 45.132812 136.21875"/></clipPath><clipPath id="e5bbed52e6"><path clip-rule="nonzero" d="M 19.132812 149.015625 L 72.101562 149.015625 L 72.101562 201.980469 L 19.132812 201.980469 Z M 19.132812 149.015625"/></clipPath><clipPath id="3fa9d063c2"><path clip-rule="nonzero" d="M 45.617188 149.015625 C 30.992188 149.015625 19.132812 160.871094 19.132812 175.5 C 19.132812 190.125 30.992188 201.980469 45.617188 201.980469 C 60.242188 201.980469 72.101562 190.125 72.101562 175.5 C 72.101562 160.871094 60.242188 149.015625 45.617188 149.015625 Z M 45.617188 149.015625"/></clipPath><clipPath id="30803d20f6"><path clip-rule="nonzero" d="M 72.101562 183.570312 L 81.457031 183.570312 L 81.457031 192.929688 L 72.101562 192.929688 Z M 72.101562 183.570312"/></clipPath><clipPath id="82a7f93d1b"><path clip-rule="nonzero" d="M 76.777344 183.570312 C 74.195312 183.570312 72.101562 185.667969 72.101562 188.25 C 72.101562 190.832031 74.195312 192.929688 76.777344 192.929688 C 79.363281 192.929688 81.457031 190.832031 81.457031 188.25 C 81.457031 185.667969 79.363281 183.570312 76.777344 183.570312 Z M 76.777344 183.570312"/></clipPath><clipPath id="19c991a0fb"><path clip-rule="nonzero" d="M 45.097656 180.335938 L 65.074219 180.335938 L 65.074219 192.921875 L 45.097656 192.921875 Z M 45.097656 180.335938"/></clipPath><clipPath id="c3a4f8565b"><path clip-rule="nonzero" d="M 47.457031 187.523438 L 66.023438 187.523438 L 66.023438 192.105469 L 47.457031 192.105469 Z M 47.457031 187.523438"/></clipPath><clipPath id="74778a638a"><path clip-rule="nonzero" d="M 25.332031 179.84375 L 45.132812 179.84375 L 45.132812 192.921875 L 25.332031 192.921875 Z M 25.332031 179.84375"/></clipPath><clipPath id="cf5f6e69d6"><path clip-rule="nonzero" d="M 24.226562 186 L 43 186 L 43 192 L 24.226562 192 Z M 24.226562 186"/></clipPath><clipPath id="2208fc4183"><path clip-rule="nonzero" d="M 37 177 L 53 177 L 53 192.921875 L 37 192.921875 Z M 37 177"/></clipPath><clipPath id="732310fb1d"><path clip-rule="nonzero" d="M 52 168.921875 L 54 168.921875 L 54 171 L 52 171 Z M 52 168.921875"/></clipPath><clipPath id="b3a355ff55"><path clip-rule="nonzero" d="M 25 154 L 43 154 L 43 175 L 25 175 Z M 25 154"/></clipPath><clipPath id="e421008ba2"><path clip-rule="nonzero" d="M 24.070312 158.882812 L 37.703125 152.628906 L 45.207031 168.992188 L 31.574219 175.246094 Z M 24.070312 158.882812"/></clipPath><clipPath id="670f4c673e"><path clip-rule="nonzero" d="M 24.070312 158.882812 L 37.703125 152.628906 L 45.207031 168.992188 L 31.574219 175.246094 Z M 24.070312 158.882812"/></clipPath><clipPath id="6c183145ba"><path clip-rule="nonzero" d="M 9.777344 184.320312 L 19.132812 184.320312 L 19.132812 193.679688 L 9.777344 193.679688 Z M 9.777344 184.320312"/></clipPath><clipPath id="ab470ef7ac"><path clip-rule="nonzero" d="M 14.457031 184.320312 C 11.871094 184.320312 9.777344 186.417969 9.777344 189 C 9.777344 191.582031 11.871094 193.679688 14.457031 193.679688 C 17.039062 193.679688 19.132812 191.582031 19.132812 189 C 19.132812 186.417969 17.039062 184.320312 14.457031 184.320312 Z M 14.457031 184.320312"/></clipPath><clipPath id="fe60fe2ab1"><path clip-rule="nonzero" d="M 39 147 L 58 147 L 58 169 L 39 169 Z M 39 147"/></clipPath><clipPath id="b037656124"><path clip-rule="nonzero" d="M 38.003906 151.683594 L 51.640625 145.429688 L 59.457031 162.472656 L 45.824219 168.726562 Z M 38.003906 151.683594"/></clipPath><clipPath id="d5691903e5"><path clip-rule="nonzero" d="M 38.003906 151.683594 L 51.640625 145.429688 L 59.457031 162.472656 L 45.824219 168.726562 Z M 38.003906 151.683594"/></clipPath></defs><g clip-path="url(#ae065a6aea)"><g clip-path="url(#3eeb63d834)"><path fill-rule="nonzero" fill-opacity="1" d="M 4.351562 136.21875 L 85.914062 136.21875 L 85.914062 217.78125 L 4.351562 217.78125 Z M 4.351562 136.21875" fill="#fe346e"/></g></g><g clip-path="url(#e5bbed52e6)"><g clip-path="url(#3fa9d063c2)"><path fill-rule="nonzero" fill-opacity="1" d="M 19.132812 149.015625 L 72.101562 149.015625 L 72.101562 201.980469 L 19.132812 201.980469 Z M 19.132812 149.015625" fill="#ffffff"/></g></g><g clip-path="url(#30803d20f6)"><g clip-path="url(#82a7f93d1b)"><path fill-rule="nonzero" fill-opacity="1" d="M 72.101562 183.570312 L 81.457031 183.570312 L 81.457031 192.929688 L 72.101562 192.929688 Z M 72.101562 183.570312" fill="#ffca4d"/></g></g><g fill-opacity="1" fill="#ffffff"><g transform="translate(15.418657, 180.032518)"><g><path d="M -1.3125 -0.25 L -1.328125 -0.8125 L -4.53125 -0.6875 L -4.515625 -0.140625 L -5.796875 -0.09375 L -5.90625 -3.1875 C -5.9375 -3.894531 -5.835938 -4.484375 -5.609375 -4.953125 C -5.390625 -5.421875 -4.960938 -5.664062 -4.328125 -5.6875 C -3.585938 -5.71875 -3.046875 -5.535156 -2.703125 -5.140625 C -2.367188 -4.753906 -2.1875 -4.160156 -2.15625 -3.359375 C -2.15625 -3.160156 -2.160156 -2.976562 -2.171875 -2.8125 L -1.40625 -2.84375 L -1.421875 -3.375 L -0.125 -3.421875 L -0.015625 -0.296875 Z M -3.328125 -2.921875 C -3.347656 -3.472656 -3.597656 -3.738281 -4.078125 -3.71875 C -4.253906 -3.71875 -4.390625 -3.65625 -4.484375 -3.53125 C -4.585938 -3.40625 -4.632812 -3.238281 -4.625 -3.03125 L -4.609375 -2.734375 L -3.328125 -2.78125 Z M -3.328125 -2.921875"/></g></g></g><g fill-opacity="1" fill="#ffffff"><g transform="translate(15.155463, 174.168299)"><g><path d="M -1.1875 -0.671875 L -1.09375 -1.234375 L -4.265625 -1.75 L -4.359375 -1.1875 L -5.625 -1.390625 L -5.046875 -5.0625 C -4.953125 -5.644531 -4.757812 -6.050781 -4.46875 -6.28125 C -4.1875 -6.519531 -3.769531 -6.597656 -3.21875 -6.515625 C -2.84375 -6.453125 -2.570312 -6.300781 -2.40625 -6.0625 C -2.238281 -5.832031 -2.15625 -5.519531 -2.15625 -5.125 C -2.039062 -5.457031 -1.867188 -5.679688 -1.640625 -5.796875 C -1.410156 -5.921875 -1.144531 -5.957031 -0.84375 -5.90625 L -0.375 -5.828125 L -0.25 -6.625 L 1.03125 -6.421875 L 0.84375 -5.28125 C 0.78125 -4.90625 0.707031 -4.640625 0.625 -4.484375 C 0.550781 -4.335938 0.398438 -4.238281 0.171875 -4.1875 C -0.046875 -4.132812 -0.414062 -4.148438 -0.9375 -4.234375 C -1.226562 -4.285156 -1.453125 -4.269531 -1.609375 -4.1875 C -1.773438 -4.113281 -1.878906 -3.945312 -1.921875 -3.6875 L -2 -3.265625 L -0.8125 -3.078125 L -0.71875 -3.640625 L 0.546875 -3.4375 L 0.078125 -0.46875 Z M -2.71875 -3.875 C -2.675781 -4.132812 -2.691406 -4.335938 -2.765625 -4.484375 C -2.835938 -4.628906 -2.992188 -4.722656 -3.234375 -4.765625 C -3.410156 -4.796875 -3.554688 -4.753906 -3.671875 -4.640625 C -3.785156 -4.523438 -3.859375 -4.363281 -3.890625 -4.15625 L -3.984375 -3.59375 L -2.796875 -3.390625 Z M -2.71875 -3.875"/></g></g></g><g fill-opacity="1" fill="#ffffff"><g transform="translate(16.239425, 167.990548)"><g><path d="M 0.140625 -0.4375 L -1.078125 -0.84375 L -0.890625 -1.40625 L -3.9375 -2.40625 L -4.125 -1.84375 L -5.34375 -2.25 L -4.390625 -5.125 L -3.171875 -4.71875 L -3.359375 -4.171875 L -0.3125 -3.171875 L -0.125 -3.71875 L 1.09375 -3.3125 Z M 0.140625 -0.4375"/></g></g></g><g fill-opacity="1" fill="#ffffff"><g transform="translate(17.223209, 164.574083)"><g><path d="M 0.140625 -0.265625 L -1.015625 -0.875 L -0.75 -1.390625 L -3.578125 -2.875 L -3.84375 -2.375 L -4.984375 -2.96875 L -3.734375 -5.328125 L 0.15625 -5.34375 L -1.75 -6.34375 L -2.03125 -5.8125 L -3.171875 -6.40625 L -2.09375 -8.453125 L -0.953125 -7.859375 L -1.21875 -7.359375 L 2.765625 -5.265625 L 1.734375 -3.328125 L -1.890625 -3.28125 L -0.21875 -2.40625 L 0.0625 -2.921875 L 1.21875 -2.3125 Z M 0.140625 -0.265625"/></g></g></g><g fill-opacity="1" fill="#ffffff"><g transform="translate(20.227983, 158.836551)"><g><path d="M 2.265625 -2.609375 C 1.898438 -2.160156 1.476562 -1.8125 1 -1.5625 C 0.519531 -1.320312 0.0078125 -1.238281 -0.53125 -1.3125 C -1.070312 -1.382812 -1.613281 -1.640625 -2.15625 -2.078125 C -2.582031 -2.429688 -2.894531 -2.832031 -3.09375 -3.28125 C -3.300781 -3.738281 -3.359375 -4.21875 -3.265625 -4.71875 C -3.179688 -5.21875 -2.953125 -5.695312 -2.578125 -6.15625 C -2.410156 -6.351562 -2.21875 -6.515625 -2 -6.640625 C -1.789062 -6.773438 -1.578125 -6.847656 -1.359375 -6.859375 L -1.59375 -7.171875 L -0.78125 -8.15625 L 0.875 -6.8125 L 0.15625 -5.9375 C -0.125 -6.082031 -0.394531 -6.117188 -0.65625 -6.046875 C -0.914062 -5.984375 -1.125 -5.859375 -1.28125 -5.671875 C -1.519531 -5.378906 -1.597656 -5.050781 -1.515625 -4.6875 C -1.441406 -4.332031 -1.21875 -4 -0.84375 -3.6875 C -0.457031 -3.375 -0.0820312 -3.210938 0.28125 -3.203125 C 0.65625 -3.203125 0.96875 -3.359375 1.21875 -3.671875 C 1.289062 -3.742188 1.347656 -3.828125 1.390625 -3.921875 C 1.441406 -4.015625 1.476562 -4.09375 1.5 -4.15625 C 1.53125 -4.21875 1.546875 -4.257812 1.546875 -4.28125 L 1.15625 -4.609375 L 0.71875 -4.0625 L -0.109375 -4.734375 L 1.359375 -6.53125 L 3.359375 -4.890625 C 3.285156 -4.484375 3.148438 -4.082031 2.953125 -3.6875 C 2.765625 -3.300781 2.535156 -2.941406 2.265625 -2.609375 Z M 2.265625 -2.609375"/></g></g></g><g fill-opacity="1" fill="#ffffff"><g transform="translate(24.075073, 154.184085)"><g><path d="M 0.359375 -0.296875 L -0.484375 -1.28125 L -0.046875 -1.65625 L -2.125 -4.09375 L -2.5625 -3.71875 L -3.390625 -4.703125 L -1.09375 -6.65625 L -0.265625 -5.671875 L -0.703125 -5.3125 L 1.375 -2.875 L 2.078125 -3.46875 L 1.515625 -4.6875 L 2.21875 -5.28125 L 3.890625 -3.3125 Z M 0.359375 -0.296875"/></g></g></g><g fill-opacity="1" fill="#ffffff"><g transform="translate(27.889229, 150.914265)"><g><path d="M 0.296875 -0.171875 L -0.359375 -1.265625 L 0.234375 -1.625 L -1.421875 -4.390625 L -2.015625 -4.03125 L -2.671875 -5.125 L 1.515625 -7.640625 L 2.6875 -5.671875 L 1.890625 -5.1875 L 1.078125 -5.890625 L 0.171875 -5.359375 L 0.65625 -4.5625 L 1.46875 -5.046875 L 1.953125 -4.21875 L 1.140625 -3.734375 L 1.828125 -2.59375 L 2.734375 -3.125 L 2.421875 -4.3125 L 3.21875 -4.796875 L 4.484375 -2.6875 Z M 0.296875 -0.171875"/></g></g></g><g fill-opacity="1" fill="#ffffff"><g transform="translate(32.362531, 148.341993)"><g/></g></g><g fill-opacity="1" fill="#ffffff"><g transform="translate(33.560095, 147.586888)"><g><path d="M 0.25 -0.078125 L -0.125 -1.296875 L 0.4375 -1.46875 L -0.53125 -4.546875 L -1.09375 -4.375 L -1.46875 -5.59375 L 1.3125 -6.453125 L 1.6875 -5.234375 L 1.234375 -5.09375 L 1.53125 -4.1875 L 2.859375 -4.609375 L 2.5625 -5.515625 L 2.125 -5.375 L 1.75 -6.59375 L 4.515625 -7.453125 L 4.890625 -6.234375 L 4.34375 -6.0625 L 5.3125 -2.984375 L 5.859375 -3.15625 L 6.234375 -1.9375 L 3.46875 -1.078125 L 3.09375 -2.296875 L 3.53125 -2.4375 L 3.21875 -3.421875 L 1.890625 -3 L 2.203125 -2.015625 L 2.65625 -2.15625 L 3.03125 -0.9375 Z M 0.25 -0.078125"/></g></g></g><g fill-opacity="1" fill="#ffffff"><g transform="translate(39.813359, 145.633185)"><g><path d="M 3.140625 -0.1875 C 2.535156 -0.125 2.003906 -0.203125 1.546875 -0.421875 C 1.085938 -0.648438 0.722656 -0.972656 0.453125 -1.390625 C 0.179688 -1.816406 0.0195312 -2.320312 -0.03125 -2.90625 C -0.09375 -3.5 -0.03125 -4.035156 0.15625 -4.515625 C 0.34375 -4.992188 0.640625 -5.367188 1.046875 -5.640625 C 1.453125 -5.921875 1.960938 -6.09375 2.578125 -6.15625 C 3.179688 -6.207031 3.707031 -6.132812 4.15625 -5.9375 C 4.613281 -5.738281 4.976562 -5.421875 5.25 -4.984375 C 5.519531 -4.554688 5.6875 -4.046875 5.75 -3.453125 C 5.800781 -2.867188 5.734375 -2.34375 5.546875 -1.875 C 5.359375 -1.40625 5.0625 -1.019531 4.65625 -0.71875 C 4.25 -0.414062 3.742188 -0.238281 3.140625 -0.1875 Z M 3.015625 -1.484375 C 3.273438 -1.503906 3.457031 -1.675781 3.5625 -2 C 3.675781 -2.332031 3.707031 -2.765625 3.65625 -3.296875 C 3.613281 -3.804688 3.507812 -4.203125 3.34375 -4.484375 C 3.175781 -4.773438 2.957031 -4.910156 2.6875 -4.890625 C 2.414062 -4.859375 2.226562 -4.6875 2.125 -4.375 C 2.019531 -4.0625 1.988281 -3.648438 2.03125 -3.140625 C 2.082031 -2.609375 2.191406 -2.191406 2.359375 -1.890625 C 2.535156 -1.597656 2.753906 -1.460938 3.015625 -1.484375 Z M 3.015625 -1.484375"/></g></g></g><g fill-opacity="1" fill="#ffffff"><g transform="translate(45.960327, 144.893176)"><g><path d="M 0.234375 0.03125 L 0.421875 -1.234375 L 1.09375 -1.140625 L 1.546875 -4.328125 L 0.875 -4.421875 L 1.046875 -5.6875 L 4.125 -5.25 L 4.84375 -2.34375 L 6.328125 -4.9375 L 9.21875 -4.515625 L 9.046875 -3.25 L 8.34375 -3.359375 L 7.890625 -0.171875 L 8.59375 -0.0625 L 8.40625 1.203125 L 5.40625 0.765625 L 5.59375 -0.5 L 6.046875 -0.4375 L 6.34375 -2.578125 L 4.59375 0.65625 L 3.5625 0.5 L 2.578125 -3.1875 L 2.265625 -0.96875 L 2.828125 -0.890625 L 2.640625 0.375 Z M 0.234375 0.03125"/></g></g></g><g fill-opacity="1" fill="#ffffff"><g transform="translate(54.184211, 146.218192)"><g><path d="M 0.328125 0.125 L 0.78125 -1.078125 L 1.4375 -0.828125 L 2.5625 -3.84375 L 1.90625 -4.09375 L 2.359375 -5.28125 L 6.9375 -3.5625 L 6.125 -1.421875 L 5.25 -1.75 L 5.28125 -2.828125 L 4.296875 -3.203125 L 3.96875 -2.3125 L 4.84375 -1.984375 L 4.515625 -1.09375 L 3.640625 -1.421875 L 3.171875 -0.1875 L 4.15625 0.1875 L 4.890625 -0.796875 L 5.765625 -0.46875 L 4.90625 1.84375 Z M 0.328125 0.125"/></g></g></g><g fill-opacity="1" fill="#ffffff"><g transform="translate(58.982719, 148.116374)"><g/></g></g><g fill-opacity="1" fill="#ffffff"><g transform="translate(60.313785, 148.633671)"><g><path d="M 1.109375 0.734375 L 1.828125 -0.359375 L 2.328125 -0.03125 L 4.09375 -2.6875 L 3.65625 -2.96875 L 2.984375 -2.234375 L 2.140625 -2.796875 L 3.390625 -4.703125 L 7.921875 -1.703125 L 6.671875 0.203125 L 5.8125 -0.359375 L 6.234375 -1.265625 L 5.796875 -1.5625 L 4.03125 1.09375 L 4.53125 1.421875 L 3.8125 2.515625 Z M 1.109375 0.734375"/></g></g></g><g fill-opacity="1" fill="#ffffff"><g transform="translate(65.100145, 151.759502)"><g><path d="M 2.1875 2.296875 C 1.570312 1.691406 1.285156 1.09375 1.328125 0.5 C 1.378906 -0.0820312 1.710938 -0.6875 2.328125 -1.3125 L 3.671875 -2.703125 L 3.25 -3.109375 L 4.140625 -4.03125 L 6.390625 -1.84375 L 5.5 -0.921875 L 5.125 -1.28125 L 3.421875 0.46875 C 3.253906 0.632812 3.15625 0.8125 3.125 1 C 3.101562 1.1875 3.1875 1.367188 3.375 1.546875 C 3.519531 1.691406 3.679688 1.765625 3.859375 1.765625 C 4.035156 1.765625 4.195312 1.6875 4.34375 1.53125 L 6.125 -0.296875 L 5.6875 -0.734375 L 6.578125 -1.65625 L 8.28125 0 L 7.390625 0.921875 L 7 0.546875 L 5.25 2.328125 C 4.769531 2.828125 4.257812 3.0625 3.71875 3.03125 C 3.175781 3.007812 2.664062 2.765625 2.1875 2.296875 Z M 2.1875 2.296875"/></g></g></g><g fill-opacity="1" fill="#ffffff"><g transform="translate(69.309009, 155.980414)"><g><path d="M 0.28125 0.375 L 1.3125 -0.390625 L 1.65625 0.078125 L 4.234375 -1.84375 L 3.890625 -2.3125 L 4.90625 -3.09375 L 6.71875 -0.671875 L 5.703125 0.109375 L 5.34375 -0.359375 L 2.765625 1.5625 L 3.125 2.03125 L 2.09375 2.796875 Z M 0.28125 0.375"/></g></g></g><g fill-opacity="1" fill="#ffffff"><g transform="translate(71.523623, 158.780063)"><g><path d="M 0.625 1.171875 L 1.78125 0.546875 L 2.0625 1.078125 L 4.875 -0.421875 L 4.625 -0.890625 L 3.6875 -0.53125 L 3.203125 -1.4375 L 5.203125 -2.515625 L 7.765625 2.28125 L 5.765625 3.359375 L 5.28125 2.453125 L 6.09375 1.84375 L 5.84375 1.375 L 3.03125 2.875 L 3.296875 3.40625 L 2.140625 4.03125 Z M 0.625 1.171875"/></g></g></g><g fill-opacity="1" fill="#ffffff"><g transform="translate(74.175549, 163.898843)"><g><path d="M 0.15625 0.4375 L 1.359375 0.015625 L 1.546875 0.5625 L 4.59375 -0.515625 L 4.40625 -1.0625 L 5.609375 -1.484375 L 6.609375 1.359375 L 5.40625 1.78125 L 5.21875 1.234375 L 2.171875 2.3125 L 2.359375 2.859375 L 1.15625 3.28125 Z M 0.15625 0.4375"/></g></g></g><g fill-opacity="1" fill="#ffffff"><g transform="translate(75.473181, 167.213901)"><g><path d="M 0.453125 3.109375 C 0.335938 2.515625 0.367188 1.976562 0.546875 1.5 C 0.722656 1.019531 1.015625 0.628906 1.421875 0.328125 C 1.835938 0.0234375 2.332031 -0.175781 2.90625 -0.28125 C 3.488281 -0.382812 4.019531 -0.363281 4.5 -0.21875 C 4.988281 -0.0703125 5.390625 0.1875 5.703125 0.5625 C 6.023438 0.945312 6.242188 1.441406 6.359375 2.046875 C 6.460938 2.640625 6.429688 3.175781 6.265625 3.65625 C 6.109375 4.132812 5.828125 4.523438 5.421875 4.828125 C 5.015625 5.128906 4.519531 5.332031 3.9375 5.4375 C 3.363281 5.539062 2.832031 5.519531 2.34375 5.375 C 1.851562 5.226562 1.441406 4.960938 1.109375 4.578125 C 0.773438 4.191406 0.554688 3.703125 0.453125 3.109375 Z M 1.734375 2.890625 C 1.773438 3.140625 1.960938 3.304688 2.296875 3.390625 C 2.640625 3.472656 3.070312 3.46875 3.59375 3.375 C 4.09375 3.28125 4.476562 3.140625 4.75 2.953125 C 5.019531 2.765625 5.132812 2.539062 5.09375 2.28125 C 5.039062 2.007812 4.851562 1.832031 4.53125 1.75 C 4.207031 1.675781 3.796875 1.6875 3.296875 1.78125 C 2.773438 1.875 2.367188 2.015625 2.078125 2.203125 C 1.796875 2.398438 1.679688 2.628906 1.734375 2.890625 Z M 1.734375 2.890625"/></g></g></g><g fill-opacity="1" fill="#ffffff"><g transform="translate(76.613144, 173.322301)"><g><path d="M -0.015625 0.296875 L 1.28125 0.328125 L 1.265625 0.921875 L 4.46875 1.015625 L 4.484375 0.4375 L 5.765625 0.46875 L 5.703125 3.140625 L 2.203125 4.859375 L 4.359375 4.921875 L 4.375 4.328125 L 5.65625 4.359375 L 5.59375 6.671875 L 4.3125 6.640625 L 4.328125 6.078125 L -0.171875 5.953125 L -0.109375 3.75 L 3.125 2.125 L 1.234375 2.0625 L 1.21875 2.640625 L -0.078125 2.609375 Z M -0.015625 0.296875"/></g></g></g><g clip-path="url(#19c991a0fb)"><path fill-rule="nonzero" fill-opacity="1" d="M 59.027344 180.355469 L 65.070312 186.695312 C 51.625 186.726562 45.097656 193.109375 45.097656 193.109375 C 45.097656 193.109375 48.398438 182.648438 59.027344 180.355469" fill="#ffca4d"/></g><g clip-path="url(#c3a4f8565b)"><path fill-rule="nonzero" fill-opacity="1" d="M 66.023438 191.648438 C 57.171875 189.492188 50.710938 190.929688 47.460938 192.078125 C 50.105469 190.40625 54.964844 188.082031 62.121094 187.550781 L 66.023438 191.648438" fill="#fe346e"/></g><g clip-path="url(#74778a638a)"><path fill-rule="nonzero" fill-opacity="1" d="M 31.628906 179.875 L 25.367188 186 C 38.804688 186.5 45.097656 193.109375 45.097656 193.109375 C 45.097656 193.109375 42.171875 182.539062 31.628906 179.875" fill="#ffca4d"/></g><g clip-path="url(#cf5f6e69d6)"><path fill-rule="nonzero" fill-opacity="1" d="M 24.238281 190.914062 C 33.160156 189.070312 39.570312 190.734375 42.773438 191.996094 C 40.191406 190.234375 35.417969 187.738281 28.285156 186.957031 L 24.238281 190.914062" fill="#fe346e"/></g><path fill-rule="nonzero" fill-opacity="1" d="M 60.4375 176.671875 L 59.570312 178.941406 C 53.957031 180.074219 50.289062 183.621094 48.199219 186.398438 C 49.96875 183.183594 53.683594 178.269531 60.4375 176.671875" fill="#fe346e"/><path fill-rule="nonzero" fill-opacity="1" d="M 29.992188 176.046875 L 30.78125 178.359375 C 36.554688 179.617188 40.203125 183.382812 42.238281 186.296875 C 40.554688 182.960938 36.914062 177.800781 29.992188 176.046875" fill="#fe346e"/><g clip-path="url(#2208fc4183)"><path fill-rule="nonzero" fill-opacity="1" d="M 45.257812 184.128906 C 45.257812 184.128906 42.117188 178.550781 37.773438 177.222656 C 37.773438 177.222656 44.058594 182.636719 45.109375 192.488281 C 46.507812 182.679688 52.980469 177.488281 52.980469 177.488281 C 48.589844 178.664062 45.257812 184.128906 45.257812 184.128906" fill="#fe346e"/></g><path fill-rule="nonzero" fill-opacity="1" d="M 47.390625 178.816406 C 47.414062 177.574219 46.519531 176.546875 45.390625 176.527344 C 44.265625 176.507812 43.332031 177.5 43.3125 178.746094 C 43.289062 179.992188 44.183594 181.015625 45.3125 181.035156 C 46.4375 181.054688 47.371094 180.0625 47.390625 178.816406" fill="#fe346e"/><path fill-rule="nonzero" fill-opacity="1" d="M 48.0625 171.355469 L 44.371094 171.292969 L 44.308594 174.980469 L 47.996094 175.046875 L 48.0625 171.355469" fill="#ffca4d"/><path fill-rule="nonzero" fill-opacity="1" d="M 49.9375 169.546875 L 48.09375 169.511719 L 48.0625 171.355469 L 49.90625 171.390625 L 49.9375 169.546875" fill="#ffca4d"/><path fill-rule="nonzero" fill-opacity="1" d="M 53.578125 173.984375 L 51.734375 173.953125 L 51.703125 175.796875 L 53.546875 175.832031 L 53.578125 173.984375" fill="#fe346e"/><path fill-rule="nonzero" fill-opacity="1" d="M 50.316406 173.242188 L 49.429688 173.226562 L 49.414062 174.113281 L 50.300781 174.128906 L 50.316406 173.242188" fill="#fe346e"/><path fill-rule="nonzero" fill-opacity="1" d="M 59.003906 171.8125 L 57.300781 171.785156 L 57.269531 173.484375 L 58.972656 173.515625 L 59.003906 171.8125" fill="#fe346e"/><path fill-rule="nonzero" fill-opacity="1" d="M 55.777344 175.703125 L 54.890625 175.6875 L 54.875 176.574219 L 55.761719 176.589844 L 55.777344 175.703125" fill="#ffca4d"/><g clip-path="url(#732310fb1d)"><path fill-rule="nonzero" fill-opacity="1" d="M 53.597656 168.945312 L 52.265625 168.921875 L 52.242188 170.25 L 53.574219 170.273438 L 53.597656 168.945312" fill="#fe346e"/></g><path fill-rule="nonzero" fill-opacity="1" d="M 55.179688 170.8125 L 53.835938 170.789062 L 53.8125 172.128906 L 55.15625 172.152344 L 55.179688 170.8125" fill="#ffca4d"/><g fill-opacity="1" fill="#ffffff"><g transform="translate(22.525857, 205.124491)"><g><path d="M 2.46875 1.453125 C 2.21875 1.316406 2.03125 1.179688 1.90625 1.046875 C 1.789062 0.910156 1.6875 0.726562 1.59375 0.5 L 1.328125 0.71875 L 0.34375 0.1875 L 1.15625 -1.296875 L 2.140625 -0.765625 C 2.109375 -0.546875 2.132812 -0.367188 2.21875 -0.234375 C 2.3125 -0.0976562 2.453125 0.0195312 2.640625 0.125 C 2.765625 0.1875 2.878906 0.21875 2.984375 0.21875 C 3.097656 0.21875 3.175781 0.175781 3.21875 0.09375 C 3.28125 0 3.28125 -0.09375 3.21875 -0.1875 C 3.15625 -0.289062 3.054688 -0.40625 2.921875 -0.53125 C 2.597656 -0.84375 2.34375 -1.128906 2.15625 -1.390625 C 1.976562 -1.660156 1.875 -1.953125 1.84375 -2.265625 C 1.8125 -2.585938 1.898438 -2.9375 2.109375 -3.3125 C 2.265625 -3.613281 2.46875 -3.835938 2.71875 -3.984375 C 2.976562 -4.140625 3.257812 -4.21875 3.5625 -4.21875 C 3.863281 -4.21875 4.175781 -4.128906 4.5 -3.953125 C 4.882812 -3.742188 5.125 -3.453125 5.21875 -3.078125 L 5.53125 -3.265625 L 6.40625 -2.796875 L 5.609375 -1.34375 L 4.671875 -1.84375 C 4.691406 -2.070312 4.664062 -2.253906 4.59375 -2.390625 C 4.519531 -2.523438 4.390625 -2.644531 4.203125 -2.75 C 4.066406 -2.820312 3.945312 -2.851562 3.84375 -2.84375 C 3.738281 -2.832031 3.660156 -2.78125 3.609375 -2.6875 C 3.566406 -2.59375 3.582031 -2.492188 3.65625 -2.390625 C 3.738281 -2.285156 3.878906 -2.148438 4.078125 -1.984375 C 4.390625 -1.703125 4.632812 -1.429688 4.8125 -1.171875 C 5 -0.921875 5.101562 -0.640625 5.125 -0.328125 C 5.15625 -0.015625 5.070312 0.320312 4.875 0.6875 C 4.707031 0.988281 4.492188 1.222656 4.234375 1.390625 C 3.972656 1.566406 3.6875 1.660156 3.375 1.671875 C 3.070312 1.679688 2.769531 1.609375 2.46875 1.453125 Z M 2.46875 1.453125"/></g></g></g><g fill-opacity="1" fill="#ffffff"><g transform="translate(26.976894, 207.501546)"><g><path d="M 0.421875 0.171875 L 0.890625 -0.953125 L 1.390625 -0.734375 L 2.59375 -3.5625 L 2.09375 -3.78125 L 2.5625 -4.90625 L 5.203125 -3.78125 L 4.734375 -2.65625 L 4.234375 -2.875 L 3.03125 -0.046875 L 3.53125 0.171875 L 3.0625 1.296875 Z M 0.421875 0.171875"/></g></g></g><g fill-opacity="1" fill="#ffffff"><g transform="translate(30.425009, 209.031265)"><g><path d="M 0.265625 0.078125 L 0.609375 -1.109375 L 1.15625 -0.953125 L 2 -3.890625 L 1.46875 -4.046875 L 1.796875 -5.21875 L 4.25 -4.515625 L 5 -0.875 L 5.578125 -2.859375 L 5.046875 -3.015625 L 5.375 -4.1875 L 7.5 -3.578125 L 7.171875 -2.40625 L 6.640625 -2.5625 L 5.453125 1.5625 L 3.4375 0.984375 L 2.703125 -2.390625 L 2.203125 -0.65625 L 2.734375 -0.5 L 2.390625 0.6875 Z M 0.265625 0.078125"/></g></g></g><g fill-opacity="1" fill="#ffffff"><g transform="translate(36.838167, 210.817907)"><g><path d="M 2.96875 0.515625 C 2.46875 0.441406 2.019531 0.269531 1.625 0 C 1.238281 -0.269531 0.945312 -0.632812 0.75 -1.09375 C 0.5625 -1.5625 0.515625 -2.101562 0.609375 -2.71875 C 0.679688 -3.25 0.84375 -3.710938 1.09375 -4.109375 C 1.34375 -4.503906 1.664062 -4.800781 2.0625 -5 C 2.46875 -5.195312 2.929688 -5.257812 3.453125 -5.1875 C 3.710938 -5.144531 3.941406 -5.050781 4.140625 -4.90625 C 4.335938 -4.757812 4.46875 -4.578125 4.53125 -4.359375 L 4.734375 -4.90625 L 5.8125 -4.765625 L 5.5 -2.515625 L 4.421875 -2.65625 L 4.4375 -2.765625 C 4.476562 -3.054688 4.441406 -3.300781 4.328125 -3.5 C 4.222656 -3.707031 4.035156 -3.832031 3.765625 -3.875 C 3.585938 -3.894531 3.410156 -3.847656 3.234375 -3.734375 C 3.066406 -3.628906 2.925781 -3.46875 2.8125 -3.25 C 2.707031 -3.039062 2.640625 -2.816406 2.609375 -2.578125 C 2.546875 -2.128906 2.609375 -1.757812 2.796875 -1.46875 C 2.992188 -1.175781 3.289062 -1.003906 3.6875 -0.953125 C 3.96875 -0.910156 4.234375 -0.914062 4.484375 -0.96875 C 4.734375 -1.03125 4.945312 -1.101562 5.125 -1.1875 L 5.1875 -1.125 L 4.984375 0.328125 C 4.671875 0.460938 4.347656 0.539062 4.015625 0.5625 C 3.679688 0.582031 3.332031 0.566406 2.96875 0.515625 Z M 2.96875 0.515625"/></g></g></g><g fill-opacity="1" fill="#ffffff"><g transform="translate(42.358068, 211.570162)"><g><path d="M 0.328125 0 L 0.34375 -1.21875 L 1.015625 -1.203125 L 1.0625 -4.28125 L 0.390625 -4.296875 L 0.421875 -5.515625 L 5.078125 -5.4375 L 5.03125 -3.234375 L 4.140625 -3.25 L 3.828125 -4.234375 L 2.84375 -4.25 L 2.828125 -3.34375 L 3.703125 -3.328125 L 3.703125 -2.421875 L 2.828125 -2.4375 L 2.796875 -1.171875 L 3.78125 -1.15625 L 4.125 -2.28125 L 5.015625 -2.265625 L 4.984375 0.078125 Z M 0.328125 0"/></g></g></g><g fill-opacity="1" fill="#ffffff"><g transform="translate(47.512272, 211.579837)"><g/></g></g><g fill-opacity="1" fill="#ffffff"><g transform="translate(49.029839, 211.486215)"><g/></g></g><g fill-opacity="1" fill="#ffffff"><g transform="translate(50.613223, 211.38672)"><g><path d="M 0.21875 -1.09375 C 0.613281 -1.332031 0.945312 -1.601562 1.21875 -1.90625 C 1.4375 -2.1875 1.585938 -2.425781 1.671875 -2.625 C 1.765625 -2.820312 1.789062 -3.046875 1.75 -3.296875 C 1.726562 -3.460938 1.660156 -3.59375 1.546875 -3.6875 C 1.429688 -3.789062 1.304688 -3.832031 1.171875 -3.8125 C 1.035156 -3.789062 0.9375 -3.722656 0.875 -3.609375 C 0.8125 -3.503906 0.789062 -3.382812 0.8125 -3.25 C 0.820312 -3.164062 0.851562 -3.085938 0.90625 -3.015625 C 0.96875 -2.953125 1.03125 -2.898438 1.09375 -2.859375 L 0.40625 -2.109375 C 0.238281 -2.234375 0.0859375 -2.398438 -0.046875 -2.609375 C -0.179688 -2.816406 -0.265625 -3.035156 -0.296875 -3.265625 C -0.347656 -3.554688 -0.3125 -3.820312 -0.1875 -4.0625 C -0.0703125 -4.3125 0.117188 -4.523438 0.390625 -4.703125 C 0.671875 -4.878906 0.992188 -5 1.359375 -5.0625 C 1.722656 -5.125 2.050781 -5.109375 2.34375 -5.015625 C 2.644531 -4.929688 2.890625 -4.785156 3.078125 -4.578125 C 3.273438 -4.367188 3.398438 -4.113281 3.453125 -3.8125 C 3.492188 -3.539062 3.457031 -3.265625 3.34375 -2.984375 C 3.238281 -2.703125 3.097656 -2.457031 2.921875 -2.25 C 2.742188 -2.050781 2.546875 -1.832031 2.328125 -1.59375 L 2.21875 -1.484375 L 2.765625 -1.578125 C 2.984375 -1.628906 3.15625 -1.695312 3.28125 -1.78125 C 3.40625 -1.875 3.453125 -2.019531 3.421875 -2.21875 L 4 -2.3125 L 4.296875 -0.734375 L 0.390625 -0.0625 Z M 0.21875 -1.09375"/></g></g></g><g fill-opacity="1" fill="#ffffff"><g transform="translate(55.343004, 210.579392)"><g><path d="M 2.328125 -0.5625 C 1.691406 -0.382812 1.125 -0.453125 0.625 -0.765625 C 0.132812 -1.085938 -0.21875 -1.625 -0.4375 -2.375 C -0.632812 -3.082031 -0.609375 -3.6875 -0.359375 -4.1875 C -0.109375 -4.695312 0.335938 -5.046875 0.984375 -5.234375 C 1.640625 -5.421875 2.203125 -5.363281 2.671875 -5.0625 C 3.148438 -4.769531 3.488281 -4.269531 3.6875 -3.5625 C 3.832031 -3.0625 3.875 -2.609375 3.8125 -2.203125 C 3.75 -1.796875 3.59375 -1.453125 3.34375 -1.171875 C 3.09375 -0.890625 2.753906 -0.6875 2.328125 -0.5625 Z M 2.09375 -3 C 2.007812 -3.28125 1.929688 -3.492188 1.859375 -3.640625 C 1.796875 -3.796875 1.722656 -3.894531 1.640625 -3.9375 C 1.554688 -3.988281 1.457031 -4 1.34375 -3.96875 C 1.226562 -3.9375 1.148438 -3.878906 1.109375 -3.796875 C 1.066406 -3.710938 1.050781 -3.585938 1.0625 -3.421875 C 1.070312 -3.253906 1.117188 -3.03125 1.203125 -2.75 C 1.285156 -2.476562 1.363281 -2.269531 1.4375 -2.125 C 1.507812 -1.988281 1.585938 -1.894531 1.671875 -1.84375 C 1.753906 -1.789062 1.851562 -1.78125 1.96875 -1.8125 C 2.082031 -1.84375 2.15625 -1.898438 2.1875 -1.984375 C 2.226562 -2.078125 2.242188 -2.195312 2.234375 -2.34375 C 2.222656 -2.5 2.175781 -2.71875 2.09375 -3 Z M 2.09375 -3"/></g></g></g><g fill-opacity="1" fill="#ffffff"><g transform="translate(60.127239, 209.188821)"><g><path d="M -0.046875 -1.125 C 0.296875 -1.445312 0.566406 -1.785156 0.765625 -2.140625 C 0.921875 -2.453125 1.019531 -2.71875 1.0625 -2.9375 C 1.101562 -3.15625 1.078125 -3.382812 0.984375 -3.625 C 0.910156 -3.769531 0.804688 -3.878906 0.671875 -3.953125 C 0.546875 -4.023438 0.421875 -4.035156 0.296875 -3.984375 C 0.160156 -3.929688 0.0703125 -3.84375 0.03125 -3.71875 C 0 -3.601562 0.0078125 -3.484375 0.0625 -3.359375 C 0.09375 -3.285156 0.144531 -3.21875 0.21875 -3.15625 C 0.289062 -3.09375 0.363281 -3.046875 0.4375 -3.015625 L -0.0625 -2.15625 C -0.269531 -2.226562 -0.457031 -2.351562 -0.625 -2.53125 C -0.800781 -2.707031 -0.929688 -2.898438 -1.015625 -3.109375 C -1.117188 -3.378906 -1.140625 -3.648438 -1.078125 -3.921875 C -1.023438 -4.191406 -0.882812 -4.441406 -0.65625 -4.671875 C -0.425781 -4.910156 -0.140625 -5.097656 0.203125 -5.234375 C 0.546875 -5.378906 0.875 -5.441406 1.1875 -5.421875 C 1.5 -5.398438 1.769531 -5.304688 2 -5.140625 C 2.226562 -4.984375 2.398438 -4.769531 2.515625 -4.5 C 2.617188 -4.238281 2.644531 -3.957031 2.59375 -3.65625 C 2.550781 -3.351562 2.46875 -3.082031 2.34375 -2.84375 C 2.226562 -2.601562 2.085938 -2.347656 1.921875 -2.078125 L 1.828125 -1.953125 L 2.34375 -2.15625 C 2.550781 -2.25 2.703125 -2.351562 2.796875 -2.46875 C 2.898438 -2.582031 2.914062 -2.726562 2.84375 -2.90625 L 3.390625 -3.140625 L 4.03125 -1.65625 L 0.359375 -0.15625 Z M -0.046875 -1.125"/></g></g></g><g fill-opacity="1" fill="#ffffff"><g transform="translate(64.555862, 207.351208)"><g><path d="M 1.421875 -0.78125 L 0.9375 -1.65625 L 1.34375 -1.875 L 1.125 -2.28125 L -0.5 -1.390625 L -0.953125 -2.203125 L -0.359375 -5.09375 L 0.96875 -5.8125 L 2.078125 -3.8125 L 2.765625 -4.203125 L 3.1875 -3.421875 L 2.5 -3.03125 L 2.71875 -2.625 L 3.09375 -2.828125 L 3.578125 -1.953125 Z M 0.703125 -3.0625 L 0.3125 -3.765625 L 0.125 -2.75 Z M 0.703125 -3.0625"/></g></g></g><g clip-path="url(#b3a355ff55)"><g clip-path="url(#e421008ba2)"><g clip-path="url(#670f4c673e)"><path fill-rule="evenodd" fill-opacity="1" d="M 33.28125 154.703125 C 33.359375 154.664062 33.4375 154.628906 33.515625 154.59375 C 33.523438 154.605469 33.527344 154.621094 33.535156 154.632812 C 33.753906 154.636719 33.964844 154.96875 34.121094 155.402344 C 34.367188 156.078125 34.402344 157.074219 34.746094 157.992188 C 35.140625 159.050781 35.929688 159.925781 35.992188 160.816406 C 36.0625 161.773438 35.6875 162.53125 35.949219 163.289062 C 36.230469 164.113281 37.257812 165.238281 38.023438 165.449219 C 38.398438 165.554688 39.035156 165.371094 39.417969 165.09375 C 39.808594 164.8125 39.765625 164.257812 40.335938 164.011719 C 40.683594 163.863281 41.125 164.027344 41.523438 164.035156 C 41.945312 164.039062 42.3125 164.023438 42.714844 164.054688 C 42.226562 164.515625 41.5 165.082031 41.410156 165.738281 C 41.359375 166.105469 41.550781 166.574219 41.445312 166.945312 C 41.320312 167.386719 40.871094 167.957031 40.515625 168.410156 C 39.507812 169.691406 37.789062 170.570312 35.933594 170.558594 C 35.269531 171.972656 35.261719 173.804688 33.378906 174.65625 C 33.179688 174.371094 33.574219 173.984375 33.367188 173.90625 C 32.894531 174.199219 32.238281 174.953125 31.648438 174.789062 C 31.515625 174.320312 31.855469 174.027344 31.972656 173.648438 C 31.820312 173.753906 31.507812 173.972656 31.3125 173.953125 C 31.277344 173.421875 31.636719 172.953125 31.933594 172.535156 C 32.847656 171.269531 34.140625 170.082031 35.148438 168.84375 C 34.042969 168.691406 31.507812 168.890625 31.3125 167.066406 C 30.183594 167 29.019531 166.566406 28.542969 165.035156 C 27.921875 164.703125 27.125 164.527344 26.800781 163.808594 C 26.71875 163.628906 26.789062 163.359375 26.707031 163.191406 C 26.601562 162.980469 26.234375 162.78125 26.054688 162.59375 C 25.839844 162.367188 25.667969 162.160156 25.460938 161.921875 C 25.371094 161.726562 25.285156 161.53125 25.195312 161.335938 C 25.164062 160.628906 25.898438 161.207031 26.300781 161.488281 C 27.871094 162.589844 29.324219 163.515625 31.03125 164.082031 C 31.554688 164.257812 32.050781 164.367188 32.589844 164.5 C 32.707031 164.53125 32.871094 164.695312 32.988281 164.550781 C 32.546875 163.636719 32.253906 162.851562 32.210938 162.03125 C 32.1875 161.527344 32.40625 161.003906 32.316406 160.617188 C 32.265625 160.382812 32.109375 160.214844 32.03125 159.992188 C 31.625 158.835938 31.90625 157.890625 32.628906 157.078125 C 32.414062 156.460938 32.578125 155.980469 33.039062 155.613281 C 33.054688 155.285156 33.136719 154.980469 33.28125 154.703125 Z M 33.804688 174.035156 C 34.347656 173.765625 34.542969 173.171875 34.75 172.707031 C 35.402344 171.226562 35.84375 169.734375 36.832031 168.402344 C 36.644531 169.042969 36.273438 169.617188 36.136719 170.277344 C 37.042969 170.179688 37.910156 170.054688 38.726562 169.65625 C 39.550781 169.253906 40.769531 167.808594 41.035156 167.183594 C 41.261719 166.65625 40.996094 166.082031 41.089844 165.554688 C 41.183594 165.039062 41.78125 164.625 42.09375 164.242188 C 41.4375 164.578125 40.984375 164.007812 40.421875 164.304688 C 40.1875 164.429688 40.125 164.75 39.960938 164.941406 C 38.621094 166.476562 36.765625 165.488281 35.976562 164.171875 C 34.988281 162.523438 36.101562 161.585938 35.539062 160.035156 C 35.285156 159.328125 34.753906 158.796875 34.492188 158.15625 C 34.054688 157.097656 34.238281 155.894531 33.484375 154.9375 C 33.019531 155.171875 33.328125 155.738281 33.367188 156.125 C 33.417969 156.582031 33.40625 157.027344 33.382812 157.390625 C 33.28125 156.890625 33.207031 156.398438 33.070312 155.882812 C 32.652344 156.183594 32.957031 156.824219 33.039062 157.359375 C 33.125 157.933594 33.195312 158.546875 33.234375 159.015625 C 33.066406 158.488281 32.914062 157.96875 32.75 157.445312 C 31.144531 158.804688 33.191406 161.566406 33.976562 163.722656 C 33.378906 163.128906 32.996094 161.949219 32.492188 161.101562 C 32.164062 162.597656 33.40625 164.984375 34.390625 166.269531 C 34.203125 166.023438 33.980469 165.867188 33.796875 165.597656 C 32.253906 166.289062 34.851562 167.382812 35.125 167.769531 C 34.632812 167.429688 33.472656 167.164062 33.097656 166.4375 C 32.929688 166.105469 32.902344 165.617188 33.421875 165.390625 C 33.363281 165.261719 33.304688 165.132812 33.242188 165 C 31.203125 164.550781 29.074219 163.820312 27.359375 162.558594 C 26.792969 162.144531 26.261719 161.578125 25.554688 161.5 C 26.300781 162.683594 27.363281 163.480469 28.1875 164.160156 C 27.8125 163.917969 27.445312 163.660156 27.0625 163.453125 C 27.65625 164.667969 29.09375 164.828125 29.910156 165.445312 C 29.542969 165.363281 29.226562 165.136719 28.824219 165.140625 C 29.71875 167.144531 31.695312 166.703125 33.078125 167.105469 C 32.589844 167.082031 32.09375 167.082031 31.601562 167.078125 C 31.636719 167.601562 31.941406 167.964844 32.21875 168.113281 C 33.109375 168.597656 34.75 168.441406 35.671875 168.652344 C 34.617188 169.855469 33.507812 171.132812 32.5 172.324219 C 32.15625 172.726562 31.703125 173.109375 31.589844 173.636719 C 32.414062 173.21875 32.859375 172.492188 33.484375 172.109375 C 32.890625 172.855469 32.164062 173.558594 31.964844 174.457031 C 33.316406 174.082031 33.726562 172.910156 34.476562 172.3125 C 34.203125 172.871094 33.808594 173.382812 33.804688 174.035156 Z M 33.804688 174.035156" fill="#fe346e"/></g></g></g><g clip-path="url(#6c183145ba)"><g clip-path="url(#ab470ef7ac)"><path fill-rule="nonzero" fill-opacity="1" d="M 9.777344 184.320312 L 19.132812 184.320312 L 19.132812 193.679688 L 9.777344 193.679688 Z M 9.777344 184.320312" fill="#ffca4d"/></g></g><g clip-path="url(#fe60fe2ab1)"><g clip-path="url(#b037656124)"><g clip-path="url(#d5691903e5)"><path fill-rule="evenodd" fill-opacity="1" d="M 47.5625 147.351562 C 47.644531 147.316406 47.726562 147.277344 47.804688 147.242188 C 47.8125 147.253906 47.816406 147.269531 47.824219 147.28125 C 48.050781 147.28125 48.269531 147.628906 48.433594 148.078125 C 48.691406 148.78125 48.722656 149.8125 49.082031 150.765625 C 49.492188 151.863281 50.308594 152.769531 50.375 153.695312 C 50.445312 154.6875 50.058594 155.472656 50.328125 156.257812 C 50.621094 157.113281 51.6875 158.28125 52.480469 158.5 C 52.867188 158.609375 53.527344 158.417969 53.925781 158.132812 C 54.332031 157.839844 54.285156 157.265625 54.878906 157.011719 C 55.238281 156.855469 55.695312 157.023438 56.113281 157.03125 C 56.546875 157.039062 56.929688 157.023438 57.347656 157.054688 C 56.839844 157.53125 56.085938 158.117188 55.996094 158.796875 C 55.941406 159.179688 56.140625 159.667969 56.03125 160.054688 C 55.902344 160.511719 55.4375 161.101562 55.066406 161.574219 C 54.019531 162.898438 52.238281 163.8125 50.3125 163.800781 C 49.625 165.265625 49.617188 167.164062 47.664062 168.050781 C 47.457031 167.753906 47.867188 167.351562 47.648438 167.273438 C 47.160156 167.574219 46.480469 168.359375 45.867188 168.1875 C 45.730469 167.703125 46.082031 167.394531 46.207031 167.007812 C 46.046875 167.117188 45.722656 167.339844 45.519531 167.320312 C 45.484375 166.769531 45.855469 166.28125 46.164062 165.851562 C 47.113281 164.535156 48.453125 163.304688 49.5 162.023438 C 48.351562 161.863281 45.722656 162.066406 45.519531 160.179688 C 44.347656 160.109375 43.144531 159.660156 42.644531 158.070312 C 42.003906 157.722656 41.175781 157.542969 40.839844 156.796875 C 40.757812 156.613281 40.828125 156.332031 40.742188 156.15625 C 40.632812 155.941406 40.253906 155.734375 40.066406 155.535156 C 39.839844 155.304688 39.667969 155.089844 39.453125 154.839844 C 39.359375 154.636719 39.265625 154.4375 39.171875 154.234375 C 39.140625 153.5 39.90625 154.097656 40.324219 154.390625 C 41.953125 155.535156 43.457031 156.496094 45.226562 157.082031 C 45.773438 157.265625 46.285156 157.375 46.84375 157.515625 C 46.964844 157.546875 47.136719 157.71875 47.261719 157.570312 C 46.800781 156.617188 46.496094 155.804688 46.453125 154.957031 C 46.425781 154.433594 46.652344 153.886719 46.5625 153.488281 C 46.507812 153.246094 46.347656 153.070312 46.265625 152.839844 C 45.84375 151.640625 46.136719 150.660156 46.882812 149.816406 C 46.664062 149.175781 46.832031 148.679688 47.3125 148.296875 C 47.328125 147.957031 47.410156 147.640625 47.5625 147.351562 Z M 48.101562 167.40625 C 48.667969 167.125 48.871094 166.511719 49.085938 166.027344 C 49.765625 164.492188 50.222656 162.945312 51.246094 161.5625 C 51.050781 162.230469 50.664062 162.824219 50.523438 163.507812 C 51.464844 163.410156 52.363281 163.277344 53.210938 162.863281 C 54.066406 162.445312 55.328125 160.949219 55.605469 160.296875 C 55.839844 159.75 55.5625 159.15625 55.660156 158.609375 C 55.757812 158.074219 56.378906 157.644531 56.703125 157.25 C 56.023438 157.597656 55.550781 157.003906 54.96875 157.3125 C 54.722656 157.441406 54.660156 157.773438 54.488281 157.972656 C 53.101562 159.566406 51.175781 158.539062 50.355469 157.175781 C 49.332031 155.464844 50.488281 154.492188 49.90625 152.882812 C 49.640625 152.148438 49.089844 151.601562 48.816406 150.933594 C 48.367188 149.839844 48.554688 148.589844 47.773438 147.597656 C 47.292969 147.839844 47.609375 148.429688 47.652344 148.828125 C 47.707031 149.304688 47.695312 149.765625 47.667969 150.140625 C 47.5625 149.621094 47.484375 149.113281 47.34375 148.578125 C 46.910156 148.890625 47.226562 149.554688 47.3125 150.109375 C 47.402344 150.703125 47.472656 151.339844 47.511719 151.828125 C 47.335938 151.28125 47.179688 150.742188 47.011719 150.199219 C 45.34375 151.609375 47.46875 154.472656 48.285156 156.707031 C 47.664062 156.09375 47.265625 154.871094 46.742188 153.988281 C 46.402344 155.539062 47.691406 158.019531 48.710938 159.347656 C 48.515625 159.09375 48.285156 158.933594 48.097656 158.652344 C 46.496094 159.371094 49.191406 160.503906 49.476562 160.90625 C 48.964844 160.554688 47.761719 160.277344 47.375 159.523438 C 47.195312 159.179688 47.167969 158.675781 47.707031 158.441406 C 47.644531 158.304688 47.585938 158.171875 47.523438 158.035156 C 45.410156 157.566406 43.199219 156.808594 41.417969 155.503906 C 40.832031 155.070312 40.277344 154.484375 39.546875 154.40625 C 40.320312 155.628906 41.421875 156.457031 42.277344 157.164062 C 41.890625 156.910156 41.511719 156.644531 41.109375 156.425781 C 41.726562 157.6875 43.21875 157.855469 44.066406 158.496094 C 43.683594 158.410156 43.355469 158.175781 42.941406 158.179688 C 43.867188 160.261719 45.917969 159.800781 47.347656 160.21875 C 46.84375 160.191406 46.332031 160.191406 45.820312 160.1875 C 45.859375 160.730469 46.171875 161.109375 46.457031 161.265625 C 47.382812 161.765625 49.085938 161.601562 50.042969 161.820312 C 48.949219 163.070312 47.796875 164.398438 46.75 165.632812 C 46.394531 166.050781 45.925781 166.445312 45.808594 166.992188 C 46.660156 166.558594 47.125 165.804688 47.773438 165.40625 C 47.15625 166.183594 46.40625 166.910156 46.199219 167.839844 C 47.597656 167.453125 48.023438 166.238281 48.800781 165.621094 C 48.515625 166.195312 48.109375 166.726562 48.101562 167.40625 Z M 48.101562 167.40625" fill="#fe346e"/></g></g></g><g fill-opacity="1" fill="#000000"><g transform="translate(99.362825, 178.01432)"><g><path d="M 1.609375 -7.03125 L 4.65625 -7.03125 L 4.65625 -24.28125 L 1.6875 -24.28125 L 1.6875 -31.234375 L 18.390625 -31.234375 C 22.210938 -31.234375 25.359375 -30.582031 27.828125 -29.28125 C 30.304688 -27.976562 31.546875 -25.617188 31.546875 -22.203125 C 31.546875 -18.210938 30.460938 -15.335938 28.296875 -13.578125 C 26.128906 -11.828125 22.878906 -10.953125 18.546875 -10.953125 C 17.472656 -10.953125 16.492188 -11.019531 15.609375 -11.15625 L 15.609375 -7.03125 L 18.46875 -7.03125 L 18.46875 0 L 1.609375 0 Z M 16.453125 -17.34375 C 19.421875 -17.34375 20.90625 -18.65625 20.90625 -21.28125 C 20.90625 -22.238281 20.578125 -22.976562 19.921875 -23.5 C 19.273438 -24.019531 18.398438 -24.28125 17.296875 -24.28125 L 15.65625 -24.28125 L 15.65625 -17.34375 Z M 16.453125 -17.34375"/></g></g></g><g fill-opacity="1" fill="#000000"><g transform="translate(136.690729, 178.01432)"><g><path d="M 2.53125 -6.90625 L 5.65625 -6.90625 L 5.65625 -24.28125 L 2.53125 -24.28125 L 2.53125 -31.1875 L 22.5625 -31.1875 C 25.800781 -31.1875 28.179688 -30.53125 29.703125 -29.21875 C 31.222656 -27.90625 31.984375 -25.738281 31.984375 -22.71875 C 31.984375 -20.6875 31.414062 -19.117188 30.28125 -18.015625 C 29.144531 -16.921875 27.535156 -16.1875 25.453125 -15.8125 C 27.328125 -15.519531 28.675781 -14.816406 29.5 -13.703125 C 30.332031 -12.597656 30.75 -11.210938 30.75 -9.546875 L 30.75 -7.03125 L 35.125 -7.03125 L 35.125 0 L 28.828125 0 C 26.785156 0 25.320312 -0.128906 24.4375 -0.390625 C 23.5625 -0.660156 22.890625 -1.398438 22.421875 -2.609375 C 21.953125 -3.816406 21.71875 -5.820312 21.71875 -8.625 C 21.71875 -10.226562 21.457031 -11.414062 20.9375 -12.1875 C 20.414062 -12.96875 19.457031 -13.359375 18.0625 -13.359375 L 15.6875 -13.359375 L 15.6875 -6.90625 L 18.828125 -6.90625 L 18.828125 0 L 2.53125 0 Z M 18.390625 -17.828125 C 19.804688 -17.828125 20.859375 -18.078125 21.546875 -18.578125 C 22.242188 -19.085938 22.59375 -19.988281 22.59375 -21.28125 C 22.59375 -22.207031 22.238281 -22.9375 21.53125 -23.46875 C 20.820312 -24.007812 19.90625 -24.28125 18.78125 -24.28125 L 15.6875 -24.28125 L 15.6875 -17.828125 Z M 18.390625 -17.828125"/></g></g></g><g fill-opacity="1" fill="#000000"><g transform="translate(175.9452, 178.01432)"><g><path d="M 2.53125 0 L 2.53125 -6.90625 L 5.65625 -6.90625 L 5.65625 -24.28125 L 2.53125 -24.28125 L 2.53125 -31.1875 L 18.828125 -31.1875 L 18.828125 -24.28125 L 15.6875 -24.28125 L 15.6875 -6.90625 L 18.828125 -6.90625 L 18.828125 0 Z M 2.53125 0"/></g></g></g><g fill-opacity="1" fill="#000000"><g transform="translate(200.46948, 178.01432)"><g><path d="M 1.609375 0 L 1.609375 -7.03125 L 4.78125 -7.03125 L 4.78125 -24.328125 L 1.6875 -24.328125 L 1.6875 -31.234375 L 16.09375 -31.234375 L 25.84375 -12.6875 L 25.84375 -24.28125 L 22.71875 -24.28125 L 22.71875 -31.1875 L 35.203125 -31.1875 L 35.203125 -24.28125 L 32.109375 -24.28125 L 32.109375 0 L 20.234375 0 L 10.953125 -17.21875 L 10.953125 -7.03125 L 14.09375 -7.03125 L 14.09375 0 Z M 1.609375 0"/></g></g></g><g fill-opacity="1" fill="#000000"><g transform="translate(241.128733, 178.01432)"><g><path d="M 18.671875 0.5625 C 15.484375 0.5625 12.570312 -0.0234375 9.9375 -1.203125 C 7.300781 -2.378906 5.191406 -4.210938 3.609375 -6.703125 C 2.035156 -9.191406 1.25 -12.320312 1.25 -16.09375 C 1.25 -19.09375 1.867188 -21.78125 3.109375 -24.15625 C 4.359375 -26.539062 6.164062 -28.410156 8.53125 -29.765625 C 10.894531 -31.117188 13.6875 -31.796875 16.90625 -31.796875 C 18.269531 -31.796875 19.59375 -31.566406 20.875 -31.109375 C 22.15625 -30.648438 23.171875 -29.984375 23.921875 -29.109375 L 24.5625 -31.1875 L 31.34375 -31.1875 L 31.34375 -19.671875 L 25.28125 -19.671875 C 24.882812 -21.328125 24.109375 -22.578125 22.953125 -23.421875 C 21.804688 -24.265625 20.601562 -24.6875 19.34375 -24.6875 C 17.257812 -24.6875 15.609375 -23.921875 14.390625 -22.390625 C 13.171875 -20.867188 12.5625 -18.769531 12.5625 -16.09375 C 12.5625 -13.394531 13.160156 -11.273438 14.359375 -9.734375 C 15.566406 -8.191406 17.269531 -7.421875 19.46875 -7.421875 C 20.03125 -7.421875 20.59375 -7.472656 21.15625 -7.578125 C 21.71875 -7.691406 22.171875 -7.804688 22.515625 -7.921875 C 22.867188 -8.046875 23.097656 -8.125 23.203125 -8.15625 L 23.203125 -10.921875 L 19.421875 -10.921875 L 19.421875 -16.734375 L 31.984375 -16.734375 L 31.984375 -2.734375 C 29.984375 -1.660156 27.832031 -0.84375 25.53125 -0.28125 C 23.226562 0.28125 20.941406 0.5625 18.671875 0.5625 Z M 18.671875 0.5625"/></g></g></g><g fill-opacity="1" fill="#000000"><g transform="translate(279.259369, 178.01432)"><g><path d="M 2.53125 0 L 2.53125 -7.03125 L 5.65625 -7.03125 L 5.65625 -24.28125 L 2.53125 -24.28125 L 2.53125 -31.1875 L 18.828125 -31.1875 L 18.828125 -24.28125 L 15.6875 -24.28125 L 15.6875 -7.03125 L 20.71875 -7.03125 L 22.59375 -13.890625 L 27.578125 -13.890625 L 27.578125 0 Z M 2.53125 0"/></g></g></g><g fill-opacity="1" fill="#000000"><g transform="translate(311.770853, 178.01432)"><g><path d="M 1.890625 0 L 1.890625 -6.90625 L 5.65625 -6.90625 L 5.65625 -24.28125 L 1.890625 -24.28125 L 1.890625 -31.1875 L 28.21875 -31.1875 L 28.21875 -18.78125 L 23.203125 -18.78125 L 21.3125 -24.28125 L 15.6875 -24.28125 L 15.6875 -19.1875 L 20.71875 -19.1875 L 20.71875 -14.046875 L 15.6875 -14.046875 L 15.6875 -6.90625 L 21.3125 -6.90625 L 23.203125 -13.28125 L 28.21875 -13.28125 L 28.21875 0 Z M 1.890625 0"/></g></g></g><g fill-opacity="1" fill="#000000"><g transform="translate(101.713087, 208.643468)"><g><path d="M 0.625 0 L 0.625 -2.96875 L 1.96875 -2.96875 L 1.96875 -10.453125 L 0.625 -10.453125 L 0.625 -13.421875 L 7.359375 -13.4375 L 7.359375 -10.453125 L 6.28125 -10.453125 L 6.28125 -8.234375 L 9.515625 -8.234375 L 9.515625 -10.453125 L 8.4375 -10.453125 L 8.4375 -13.4375 L 15.171875 -13.421875 L 15.171875 -10.453125 L 13.828125 -10.453125 L 13.828125 -2.96875 L 15.171875 -2.96875 L 15.171875 0 L 8.4375 0 L 8.4375 -2.96875 L 9.515625 -2.96875 L 9.515625 -5.359375 L 6.28125 -5.359375 L 6.28125 -2.96875 L 7.359375 -2.96875 L 7.359375 0 Z M 0.625 0"/></g></g></g><g fill-opacity="1" fill="#000000"><g transform="translate(124.623011, 208.643468)"><g><path d="M 7.28125 0.234375 C 5.875 0.234375 4.660156 -0.0625 3.640625 -0.65625 C 2.628906 -1.25 1.859375 -2.070312 1.328125 -3.125 C 0.796875 -4.1875 0.53125 -5.390625 0.53125 -6.734375 C 0.53125 -8.128906 0.796875 -9.347656 1.328125 -10.390625 C 1.859375 -11.441406 2.628906 -12.25 3.640625 -12.8125 C 4.648438 -13.382812 5.863281 -13.671875 7.28125 -13.671875 C 8.695312 -13.671875 9.910156 -13.382812 10.921875 -12.8125 C 11.941406 -12.25 12.710938 -11.441406 13.234375 -10.390625 C 13.765625 -9.347656 14.03125 -8.128906 14.03125 -6.734375 C 14.03125 -5.390625 13.765625 -4.1875 13.234375 -3.125 C 12.710938 -2.070312 11.941406 -1.25 10.921875 -0.65625 C 9.898438 -0.0625 8.6875 0.234375 7.28125 0.234375 Z M 7.28125 -2.75 C 7.894531 -2.75 8.363281 -3.113281 8.6875 -3.84375 C 9.007812 -4.582031 9.171875 -5.566406 9.171875 -6.796875 C 9.171875 -7.992188 9.015625 -8.941406 8.703125 -9.640625 C 8.390625 -10.335938 7.914062 -10.6875 7.28125 -10.6875 C 6.65625 -10.6875 6.1875 -10.335938 5.875 -9.640625 C 5.5625 -8.941406 5.40625 -7.992188 5.40625 -6.796875 C 5.40625 -5.566406 5.566406 -4.582031 5.890625 -3.84375 C 6.210938 -3.113281 6.675781 -2.75 7.28125 -2.75 Z M 7.28125 -2.75"/></g></g></g><g fill-opacity="1" fill="#000000"><g transform="translate(146.738887, 208.643468)"><g><path d="M 0.53125 0 L 0.53125 -2.96875 L 2.15625 -2.96875 L 2.15625 -10.453125 L 0.53125 -10.453125 L 0.53125 -13.421875 L 7.765625 -13.421875 L 10.375 -6.953125 L 12.953125 -13.421875 L 19.703125 -13.421875 L 19.703125 -10.453125 L 18.078125 -10.453125 L 18.078125 -2.96875 L 19.703125 -2.96875 L 19.703125 0 L 12.671875 0 L 12.671875 -2.96875 L 13.765625 -2.96875 L 13.765625 -7.984375 L 10.796875 0 L 8.359375 0 L 4.859375 -8.171875 L 4.859375 -2.96875 L 6.203125 -2.96875 L 6.203125 0 Z M 0.53125 0"/></g></g></g><g fill-opacity="1" fill="#000000"><g transform="translate(173.84343, 208.643468)"><g><path d="M 0.8125 0 L 0.8125 -2.96875 L 2.4375 -2.96875 L 2.4375 -10.453125 L 0.8125 -10.453125 L 0.8125 -13.421875 L 12.140625 -13.421875 L 12.140625 -8.078125 L 9.984375 -8.078125 L 9.171875 -10.453125 L 6.75 -10.453125 L 6.75 -8.25 L 8.90625 -8.25 L 8.90625 -6.046875 L 6.75 -6.046875 L 6.75 -2.96875 L 9.171875 -2.96875 L 9.984375 -5.71875 L 12.140625 -5.71875 L 12.140625 0 Z M 0.8125 0"/></g></g></g><g fill-opacity="1" fill="#000000"><g transform="translate(193.180156, 208.643468)"><g/></g></g><g fill-opacity="1" fill="#000000"><g transform="translate(203.851462, 208.643468)"><g><path d="M 3.078125 0 L 3.078125 -3.03125 L 4.453125 -3.03125 L 4.453125 -10.453125 L 3.265625 -10.453125 L 2.90625 -8.125 L 0.53125 -8.125 L 0.53125 -13.421875 L 13.15625 -13.421875 L 13.15625 -8.125 L 10.796875 -8.125 L 10.421875 -10.453125 L 9.203125 -10.453125 L 9.203125 -3.03125 L 10.578125 -3.03125 L 10.578125 0 Z M 3.078125 0"/></g></g></g><g fill-opacity="1" fill="#000000"><g transform="translate(224.759016, 208.643468)"><g><path d="M 7.359375 0.234375 C 5.347656 0.234375 3.898438 -0.285156 3.015625 -1.328125 C 2.140625 -2.378906 1.703125 -3.914062 1.703125 -5.9375 L 1.703125 -10.453125 L 0.34375 -10.453125 L 0.34375 -13.421875 L 7.671875 -13.421875 L 7.671875 -10.453125 L 6.421875 -10.453125 L 6.421875 -4.796875 C 6.421875 -4.242188 6.554688 -3.789062 6.828125 -3.4375 C 7.097656 -3.09375 7.519531 -2.921875 8.09375 -2.921875 C 8.582031 -2.921875 8.96875 -3.0625 9.25 -3.34375 C 9.53125 -3.632812 9.671875 -4.03125 9.671875 -4.53125 L 9.671875 -10.453125 L 8.28125 -10.453125 L 8.28125 -13.421875 L 13.796875 -13.421875 L 13.796875 -10.453125 L 12.5 -10.453125 L 12.5 -4.640625 C 12.5 -3.035156 12.023438 -1.820312 11.078125 -1 C 10.140625 -0.175781 8.898438 0.234375 7.359375 0.234375 Z M 7.359375 0.234375"/></g></g></g><g fill-opacity="1" fill="#000000"><g transform="translate(246.132641, 208.643468)"><g><path d="M 1.09375 0 L 1.09375 -2.96875 L 2.4375 -2.96875 L 2.4375 -10.453125 L 1.09375 -10.453125 L 1.09375 -13.421875 L 8.09375 -13.421875 L 8.09375 -10.453125 L 6.75 -10.453125 L 6.75 -2.96875 L 8.09375 -2.96875 L 8.09375 0 Z M 1.09375 0"/></g></g></g><g fill-opacity="1" fill="#000000"><g transform="translate(261.913436, 208.643468)"><g><path d="M 3.078125 0 L 3.078125 -3.03125 L 4.453125 -3.03125 L 4.453125 -10.453125 L 3.265625 -10.453125 L 2.90625 -8.125 L 0.53125 -8.125 L 0.53125 -13.421875 L 13.15625 -13.421875 L 13.15625 -8.125 L 10.796875 -8.125 L 10.421875 -10.453125 L 9.203125 -10.453125 L 9.203125 -3.03125 L 10.578125 -3.03125 L 10.578125 0 Z M 3.078125 0"/></g></g></g><g fill-opacity="1" fill="#000000"><g transform="translate(282.82099, 208.643468)"><g><path d="M 1.09375 0 L 1.09375 -2.96875 L 2.4375 -2.96875 L 2.4375 -10.453125 L 1.09375 -10.453125 L 1.09375 -13.421875 L 8.09375 -13.421875 L 8.09375 -10.453125 L 6.75 -10.453125 L 6.75 -2.96875 L 8.09375 -2.96875 L 8.09375 0 Z M 1.09375 0"/></g></g></g><g fill-opacity="1" fill="#000000"><g transform="translate(298.601784, 208.643468)"><g><path d="M 7.28125 0.234375 C 5.875 0.234375 4.660156 -0.0625 3.640625 -0.65625 C 2.628906 -1.25 1.859375 -2.070312 1.328125 -3.125 C 0.796875 -4.1875 0.53125 -5.390625 0.53125 -6.734375 C 0.53125 -8.128906 0.796875 -9.347656 1.328125 -10.390625 C 1.859375 -11.441406 2.628906 -12.25 3.640625 -12.8125 C 4.648438 -13.382812 5.863281 -13.671875 7.28125 -13.671875 C 8.695312 -13.671875 9.910156 -13.382812 10.921875 -12.8125 C 11.941406 -12.25 12.710938 -11.441406 13.234375 -10.390625 C 13.765625 -9.347656 14.03125 -8.128906 14.03125 -6.734375 C 14.03125 -5.390625 13.765625 -4.1875 13.234375 -3.125 C 12.710938 -2.070312 11.941406 -1.25 10.921875 -0.65625 C 9.898438 -0.0625 8.6875 0.234375 7.28125 0.234375 Z M 7.28125 -2.75 C 7.894531 -2.75 8.363281 -3.113281 8.6875 -3.84375 C 9.007812 -4.582031 9.171875 -5.566406 9.171875 -6.796875 C 9.171875 -7.992188 9.015625 -8.941406 8.703125 -9.640625 C 8.390625 -10.335938 7.914062 -10.6875 7.28125 -10.6875 C 6.65625 -10.6875 6.1875 -10.335938 5.875 -9.640625 C 5.5625 -8.941406 5.40625 -7.992188 5.40625 -6.796875 C 5.40625 -5.566406 5.566406 -4.582031 5.890625 -3.84375 C 6.210938 -3.113281 6.675781 -2.75 7.28125 -2.75 Z M 7.28125 -2.75"/></g></g></g><g fill-opacity="1" fill="#000000"><g transform="translate(320.71765, 208.643468)"><g><path d="M 0.6875 0 L 0.6875 -3.015625 L 2.046875 -3.015625 L 2.046875 -10.46875 L 0.71875 -10.46875 L 0.71875 -13.4375 L 6.921875 -13.4375 L 11.125 -5.453125 L 11.125 -10.453125 L 9.765625 -10.453125 L 9.765625 -13.421875 L 15.140625 -13.421875 L 15.140625 -10.453125 L 13.8125 -10.453125 L 13.8125 0 L 8.703125 0 L 4.71875 -7.40625 L 4.71875 -3.015625 L 6.0625 -3.015625 L 6.0625 0 Z M 0.6875 0"/></g></g></g></svg>